<svg xmlns="http://www.w3.org/2000/svg" width="38.38" height="38.38" viewBox="0 0 38.38 38.38">
  <defs>
    <style>
      .cls-1 {
        fill: #73c22e;
        fill-rule: evenodd;
      }
    </style>
  </defs>
  <path id="Vector" class="cls-1" d="M1290,2190.8a19.2,19.2,0,1,0,7.35,1.46,19.21,19.21,0,0,0-7.35-1.46h0Zm10,26.98a2.228,2.228,0,0,1-2.22,2.22h-15.56a2.228,2.228,0,0,1-2.22-2.22v-15.56a2.228,2.228,0,0,1,2.22-2.22h15.56a2.228,2.228,0,0,1,2.22,2.22v15.56h0Zm-5.2-11.98h2.4a0.615,0.615,0,0,0,.6-0.6v-2.4a0.615,0.615,0,0,0-.6-0.6h-2.4a0.6,0.6,0,0,0-.43.18,0.589,0.589,0,0,0-.17.42v2.4a0.6,0.6,0,0,0,.6.6h0Zm1.2,4.2a6,6,0,0,1-12,0,5.468,5.468,0,0,1,.1-1H1282v7.99a1.007,1.007,0,0,0,1.01,1.01H1297a1.007,1.007,0,0,0,1-1.01V2209h-2.1a5.468,5.468,0,0,1,.1,1h0Zm-6,4a3.806,3.806,0,0,0,1.53-.31,3.933,3.933,0,0,0,1.3-.86,4.237,4.237,0,0,0,.87-1.3,4.048,4.048,0,0,0,.3-1.53,3.806,3.806,0,0,0-.31-1.53,3.933,3.933,0,0,0-.86-1.3A3.968,3.968,0,0,0,1290,2206a4,4,0,1,0,0,8h0Z" transform="translate(-1270.81 -2190.81)"/>
</svg>
