<svg xmlns="http://www.w3.org/2000/svg" width="40" height="40" viewBox="0 0 40 40">
  <defs>
    <style>
      .cls-1 {
        fill: #73c22e;
        fill-rule: evenodd;
      }
    </style>
  </defs>
  <path id="Vector" class="cls-1" d="M1310,2151a20.007,20.007,0,1,1-5.86-14.14A20.006,20.006,0,0,1,1310,2151h0Zm-19.28-5.24q-2.925,1.215-11.67,5.03c-0.94.37-1.44,0.74-1.49,1.1-0.07.61,0.69,0.85,1.73,1.18l0.44,0.14a14,14,0,0,0,3.1.73,3.717,3.717,0,0,0,2.17-.8q8.175-5.52,8.44-5.57a0.429,0.429,0,0,1,.41.04,0.407,0.407,0,0,1,.1.35,57.741,57.741,0,0,1-4.62,4.54c-0.48.45-.82,0.77-0.89,0.84l-0.47.47c-0.95.91-1.66,1.6,0.03,2.72,0.82,0.54,1.48.98,2.13,1.42,0.71,0.49,1.42.97,2.34,1.58,0.23,0.15.46,0.31,0.67,0.46a3.856,3.856,0,0,0,2.5,1.04c0.53-.05,1.08-0.55,1.36-2.05,0.67-3.54,1.97-11.22,2.27-14.38a3.508,3.508,0,0,0-.03-0.79,0.876,0.876,0,0,0-.29-0.54,1.337,1.337,0,0,0-.77-0.23c-0.75.01-1.91,0.41-7.46,2.72h0Z" transform="translate(-1270 -2131)"/>
</svg>
