<svg xmlns="http://www.w3.org/2000/svg" width="38.38" height="38.38" viewBox="0 0 38.38 38.38">
  <defs>
    <style>
      .cls-1 {
        fill: #73c22e;
        fill-rule: evenodd;
      }
    </style>
  </defs>
  <path id="Vector" class="cls-1" d="M1290,2248.8a19.2,19.2,0,1,0,19.2,19.2A19.2,19.2,0,0,0,1290,2248.8Zm7.38,21.66a17.7,17.7,0,0,1,2.12,2.46,0.076,0.076,0,0,1,.02.04,0.716,0.716,0,0,1,.13.67,1.1,1.1,0,0,1-.79.42h-3a2.12,2.12,0,0,1-1.17-.41,7.6,7.6,0,0,1-1.19-1.21,2.9,2.9,0,0,0-1.6-1.26,0.628,0.628,0,0,0-.19.03c-0.38.13-.87,0.67-0.87,2.13a0.69,0.69,0,0,1-.62.72h-1.37a7.4,7.4,0,0,1-5.07-2.44c-2.64-2.79-5.02-8.39-5.04-8.44-0.15-.36.16-0.55,0.5-0.55h3.03a0.612,0.612,0,0,1,.62.46,21.937,21.937,0,0,0,1.16,2.4c1.05,1.85,1.7,2.6,2.22,2.6a0.519,0.519,0,0,0,.27-0.07c0.68-.37.55-2.78,0.52-3.28a3.232,3.232,0,0,0-.34-1.55,1.413,1.413,0,0,0-.93-0.52,1.014,1.014,0,0,1,.4-0.34,5.569,5.569,0,0,1,2.13-.27h0.46a5.183,5.183,0,0,1,1.46.15c0.66,0.16.67,0.59,0.61,2.05-0.01.41-.03,0.88-0.03,1.43,0,0.12-.01.25-0.01,0.38-0.02.75-.04,1.59,0.48,1.93a0.389,0.389,0,0,0,.23.07c0.18,0,.73,0,2.21-2.55a18.9,18.9,0,0,0,1.19-2.54,0.712,0.712,0,0,1,.23-0.28,0.5,0.5,0,0,1,.24-0.06h3.57a0.74,0.74,0,0,1,.7.21c0.09,0.24-.02.97-1.64,3.17l-0.73.96c-1.47,1.93-1.47,2.03.09,3.49h0Z" transform="translate(-1270.81 -2248.81)"/>
</svg>
